<mxfile host="app.diagrams.net" modified="2021-06-04T15:14:58.434Z" agent="5.0 (Windows NT 10.0; Win64; x64) AppleWebKit/537.36 (KHTML, like Gecko) Chrome/88.0.4324.182 Safari/537.36" etag="hAgq4iAljIq-xDxqhsVe" version="14.7.5" type="github">
  <diagram id="6_ecPUshLlwVgdBVKpO_" name="Page-1">
    <mxGraphModel dx="1241" dy="745" grid="1" gridSize="10" guides="1" tooltips="1" connect="1" arrows="1" fold="1" page="1" pageScale="1" pageWidth="3300" pageHeight="4681" math="0" shadow="0">
      <root>
        <mxCell id="0" />
        <mxCell id="1" parent="0" />
        <mxCell id="QlCcZhOIAzY21EdT9HeD-11" value="" style="edgeStyle=orthogonalEdgeStyle;rounded=0;orthogonalLoop=1;jettySize=auto;html=1;" edge="1" parent="1" source="QlCcZhOIAzY21EdT9HeD-1" target="QlCcZhOIAzY21EdT9HeD-2">
          <mxGeometry relative="1" as="geometry" />
        </mxCell>
        <mxCell id="QlCcZhOIAzY21EdT9HeD-1" value="FUNCTION view_indhistory (user_data, data_transactions, space_transactions)" style="shape=process;whiteSpace=wrap;html=1;backgroundOutline=1;" vertex="1" parent="1">
          <mxGeometry x="2150" y="120" width="240" height="70" as="geometry" />
        </mxCell>
        <mxCell id="QlCcZhOIAzY21EdT9HeD-12" value="" style="edgeStyle=orthogonalEdgeStyle;rounded=0;orthogonalLoop=1;jettySize=auto;html=1;" edge="1" parent="1" source="QlCcZhOIAzY21EdT9HeD-2" target="QlCcZhOIAzY21EdT9HeD-3">
          <mxGeometry relative="1" as="geometry" />
        </mxCell>
        <mxCell id="QlCcZhOIAzY21EdT9HeD-2" value="title = user_data[2] + &quot;, view your rental history here&quot;" style="rounded=1;whiteSpace=wrap;html=1;" vertex="1" parent="1">
          <mxGeometry x="2155" y="250" width="230" height="40" as="geometry" />
        </mxCell>
        <mxCell id="QlCcZhOIAzY21EdT9HeD-13" value="" style="edgeStyle=orthogonalEdgeStyle;rounded=0;orthogonalLoop=1;jettySize=auto;html=1;" edge="1" parent="1" source="QlCcZhOIAzY21EdT9HeD-3" target="QlCcZhOIAzY21EdT9HeD-5">
          <mxGeometry relative="1" as="geometry" />
        </mxCell>
        <mxCell id="QlCcZhOIAzY21EdT9HeD-3" value="&lt;div&gt;&amp;nbsp; &amp;nbsp; default.print_table(data_transactions, 5, space_transactions, user_data[0])&lt;/div&gt;" style="shape=process;whiteSpace=wrap;html=1;backgroundOutline=1;" vertex="1" parent="1">
          <mxGeometry x="2130" y="340" width="280" height="70" as="geometry" />
        </mxCell>
        <mxCell id="QlCcZhOIAzY21EdT9HeD-10" value="" style="edgeStyle=orthogonalEdgeStyle;rounded=0;orthogonalLoop=1;jettySize=auto;html=1;" edge="1" parent="1" source="QlCcZhOIAzY21EdT9HeD-5" target="QlCcZhOIAzY21EdT9HeD-9">
          <mxGeometry relative="1" as="geometry" />
        </mxCell>
        <mxCell id="QlCcZhOIAzY21EdT9HeD-5" value="PRINT(&quot;&quot;)" style="rounded=1;whiteSpace=wrap;html=1;" vertex="1" parent="1">
          <mxGeometry x="2155" y="460" width="230" height="40" as="geometry" />
        </mxCell>
        <mxCell id="QlCcZhOIAzY21EdT9HeD-15" value="" style="edgeStyle=orthogonalEdgeStyle;rounded=0;orthogonalLoop=1;jettySize=auto;html=1;" edge="1" parent="1" source="QlCcZhOIAzY21EdT9HeD-9" target="QlCcZhOIAzY21EdT9HeD-14">
          <mxGeometry relative="1" as="geometry" />
        </mxCell>
        <mxCell id="QlCcZhOIAzY21EdT9HeD-9" value="DECLARE menu = [&quot;Return&quot;]" style="rounded=1;whiteSpace=wrap;html=1;" vertex="1" parent="1">
          <mxGeometry x="2155" y="580" width="230" height="40" as="geometry" />
        </mxCell>
        <mxCell id="QlCcZhOIAzY21EdT9HeD-18" value="" style="edgeStyle=orthogonalEdgeStyle;rounded=0;orthogonalLoop=1;jettySize=auto;html=1;" edge="1" parent="1" source="QlCcZhOIAzY21EdT9HeD-14" target="QlCcZhOIAzY21EdT9HeD-16">
          <mxGeometry relative="1" as="geometry" />
        </mxCell>
        <mxCell id="QlCcZhOIAzY21EdT9HeD-14" value="default.general_menu(menu)" style="shape=process;whiteSpace=wrap;html=1;backgroundOutline=1;" vertex="1" parent="1">
          <mxGeometry x="2150" y="660" width="240" height="70" as="geometry" />
        </mxCell>
        <mxCell id="QlCcZhOIAzY21EdT9HeD-19" value="" style="edgeStyle=orthogonalEdgeStyle;rounded=0;orthogonalLoop=1;jettySize=auto;html=1;" edge="1" parent="1" source="QlCcZhOIAzY21EdT9HeD-16" target="QlCcZhOIAzY21EdT9HeD-17">
          <mxGeometry relative="1" as="geometry" />
        </mxCell>
        <mxCell id="QlCcZhOIAzY21EdT9HeD-16" value="PRINT(&quot;Please Select: &quot;)" style="rounded=1;whiteSpace=wrap;html=1;" vertex="1" parent="1">
          <mxGeometry x="2155" y="790" width="230" height="40" as="geometry" />
        </mxCell>
        <mxCell id="QlCcZhOIAzY21EdT9HeD-28" value="" style="edgeStyle=orthogonalEdgeStyle;rounded=0;orthogonalLoop=1;jettySize=auto;html=1;" edge="1" parent="1" source="QlCcZhOIAzY21EdT9HeD-17" target="QlCcZhOIAzY21EdT9HeD-20">
          <mxGeometry relative="1" as="geometry" />
        </mxCell>
        <mxCell id="QlCcZhOIAzY21EdT9HeD-17" value="READ choice" style="shape=parallelogram;perimeter=parallelogramPerimeter;whiteSpace=wrap;html=1;fixedSize=1;" vertex="1" parent="1">
          <mxGeometry x="2156" y="890" width="229" height="50" as="geometry" />
        </mxCell>
        <mxCell id="QlCcZhOIAzY21EdT9HeD-26" value="" style="edgeStyle=orthogonalEdgeStyle;rounded=0;orthogonalLoop=1;jettySize=auto;html=1;" edge="1" parent="1" source="QlCcZhOIAzY21EdT9HeD-20" target="QlCcZhOIAzY21EdT9HeD-25">
          <mxGeometry relative="1" as="geometry" />
        </mxCell>
        <mxCell id="QlCcZhOIAzY21EdT9HeD-29" style="edgeStyle=orthogonalEdgeStyle;rounded=0;orthogonalLoop=1;jettySize=auto;html=1;" edge="1" parent="1" source="QlCcZhOIAzY21EdT9HeD-20">
          <mxGeometry relative="1" as="geometry">
            <mxPoint x="2270.5" y="639" as="targetPoint" />
            <Array as="points">
              <mxPoint x="2100" y="1040" />
              <mxPoint x="2100" y="639" />
            </Array>
          </mxGeometry>
        </mxCell>
        <mxCell id="QlCcZhOIAzY21EdT9HeD-20" value="choice == &#39;1&#39;" style="rhombus;whiteSpace=wrap;html=1;" vertex="1" parent="1">
          <mxGeometry x="2215.5" y="990" width="110" height="100" as="geometry" />
        </mxCell>
        <mxCell id="QlCcZhOIAzY21EdT9HeD-23" value="" style="edgeStyle=orthogonalEdgeStyle;rounded=0;orthogonalLoop=1;jettySize=auto;html=1;" edge="1" parent="1" source="QlCcZhOIAzY21EdT9HeD-21" target="QlCcZhOIAzY21EdT9HeD-22">
          <mxGeometry relative="1" as="geometry" />
        </mxCell>
        <mxCell id="QlCcZhOIAzY21EdT9HeD-21" value="choice == &#39;1&#39;" style="rhombus;whiteSpace=wrap;html=1;" vertex="1" parent="1">
          <mxGeometry x="2215.5" y="1210" width="110" height="100" as="geometry" />
        </mxCell>
        <mxCell id="QlCcZhOIAzY21EdT9HeD-22" value="RETURN" style="ellipse;whiteSpace=wrap;html=1;" vertex="1" parent="1">
          <mxGeometry x="2225.5" y="1360" width="90" height="80" as="geometry" />
        </mxCell>
        <mxCell id="QlCcZhOIAzY21EdT9HeD-27" value="" style="edgeStyle=orthogonalEdgeStyle;rounded=0;orthogonalLoop=1;jettySize=auto;html=1;" edge="1" parent="1" source="QlCcZhOIAzY21EdT9HeD-25" target="QlCcZhOIAzY21EdT9HeD-21">
          <mxGeometry relative="1" as="geometry" />
        </mxCell>
        <mxCell id="QlCcZhOIAzY21EdT9HeD-25" value="BREAK" style="rounded=1;whiteSpace=wrap;html=1;" vertex="1" parent="1">
          <mxGeometry x="2197.5" y="1130" width="145" height="40" as="geometry" />
        </mxCell>
        <mxCell id="QlCcZhOIAzY21EdT9HeD-30" value="False" style="text;html=1;align=center;verticalAlign=middle;resizable=0;points=[];autosize=1;strokeColor=none;" vertex="1" parent="1">
          <mxGeometry x="2176" y="1020" width="40" height="20" as="geometry" />
        </mxCell>
        <mxCell id="QlCcZhOIAzY21EdT9HeD-31" value="True" style="text;html=1;align=center;verticalAlign=middle;resizable=0;points=[];autosize=1;strokeColor=none;" vertex="1" parent="1">
          <mxGeometry x="2270" y="1090" width="40" height="20" as="geometry" />
        </mxCell>
        <mxCell id="QlCcZhOIAzY21EdT9HeD-32" value="True" style="text;html=1;align=center;verticalAlign=middle;resizable=0;points=[];autosize=1;strokeColor=none;" vertex="1" parent="1">
          <mxGeometry x="2270" y="1310" width="40" height="20" as="geometry" />
        </mxCell>
      </root>
    </mxGraphModel>
  </diagram>
</mxfile>
